<svg width="1600" height="1000" viewBox="0 0 1600 1000" fill="none" xmlns="http://www.w3.org/2000/svg">
  <rect width="1600" height="1000" rx="56" fill="#F7F6F2"/>
  <rect x="88" y="72" width="1424" height="856" rx="40" fill="#FFFFFF" stroke="#E6E2DA"/>
  <rect x="118" y="104" width="1364" height="44" rx="22" fill="#FBFAF7" stroke="#E6E2DA"/>
  <circle cx="154" cy="126" r="7" fill="#C8C0B5"/>
  <circle cx="180" cy="126" r="7" fill="#C8C0B5"/>
  <circle cx="206" cy="126" r="7" fill="#C8C0B5"/>
  <text x="268" y="132" fill="#1F1F1C" font-family="ui-sans-serif, -apple-system, BlinkMacSystemFont, Segoe UI, sans-serif" font-size="18" font-weight="600">BloomBatch</text>
  <text x="1322" y="132" fill="#7B756E" font-family="ui-sans-serif, -apple-system, BlinkMacSystemFont, Segoe UI, sans-serif" font-size="14">local only</text>

  <rect x="118" y="176" width="434" height="648" rx="34" fill="#FBFAF7" stroke="#E6E2DA"/>
  <text x="152" y="228" fill="#1F1F1C" font-family="ui-sans-serif, -apple-system, BlinkMacSystemFont, Segoe UI, sans-serif" font-size="28" font-weight="600">Drop files here</text>
  <text x="152" y="262" fill="#7B756E" font-family="ui-sans-serif, -apple-system, BlinkMacSystemFont, Segoe UI, sans-serif" font-size="16">or click to browse</text>
  <rect x="156" y="320" width="362" height="368" rx="28" fill="#FFFFFF" stroke="#E6E2DA" stroke-dasharray="8 8"/>
  <text x="230" y="500" fill="#7B756E" font-family="ui-sans-serif, -apple-system, BlinkMacSystemFont, Segoe UI, sans-serif" font-size="16">Drop files or open the picker</text>
  <rect x="156" y="712" width="362" height="74" rx="22" fill="#111111"/>
  <text x="238" y="759" fill="#FFFFFF" font-family="ui-sans-serif, -apple-system, BlinkMacSystemFont, Segoe UI, sans-serif" font-size="18" font-weight="600">Add files</text>

  <rect x="588" y="176" width="894" height="648" rx="34" fill="#FBFAF7" stroke="#E6E2DA"/>
  <text x="622" y="228" fill="#1F1F1C" font-family="ui-sans-serif, -apple-system, BlinkMacSystemFont, Segoe UI, sans-serif" font-size="28" font-weight="600">Preview</text>
  <text x="1300" y="228" fill="#7B756E" font-family="ui-sans-serif, -apple-system, BlinkMacSystemFont, Segoe UI, sans-serif" font-size="15">7 files ready</text>

  <rect x="620" y="270" width="826" height="78" rx="20" fill="#FFFFFF" stroke="#E6E2DA"/>
  <text x="648" y="318" fill="#7B756E" font-family="ui-monospace, 'SFMono-Regular', 'SF Mono', Consolas, monospace" font-size="15">draft-notes.txt</text>
  <text x="1038" y="318" fill="#1F1F1C" font-family="ui-monospace, 'SFMono-Regular', 'SF Mono', Consolas, monospace" font-size="15">draft-notes_01.txt</text>
  <circle cx="1444" cy="309" r="7" fill="#A6A096"/>

  <rect x="620" y="360" width="826" height="78" rx="20" fill="#FFFFFF" stroke="#E6E2DA"/>
  <text x="648" y="408" fill="#7B756E" font-family="ui-monospace, 'SFMono-Regular', 'SF Mono', Consolas, monospace" font-size="15">invoice-final.pdf</text>
  <text x="1038" y="408" fill="#1F1F1C" font-family="ui-monospace, 'SFMono-Regular', 'SF Mono', Consolas, monospace" font-size="15">invoice-final_02.pdf</text>
  <circle cx="1444" cy="399" r="7" fill="#A6A096"/>

  <rect x="620" y="450" width="826" height="78" rx="20" fill="#FFFFFF" stroke="#E6E2DA"/>
  <text x="648" y="498" fill="#7B756E" font-family="ui-monospace, 'SFMono-Regular', 'SF Mono', Consolas, monospace" font-size="15">image-0001.png</text>
  <text x="1038" y="498" fill="#1F1F1C" font-family="ui-monospace, 'SFMono-Regular', 'SF Mono', Consolas, monospace" font-size="15">image-0001_03.png</text>
  <circle cx="1444" cy="489" r="7" fill="#A6A096"/>

  <rect x="620" y="540" width="826" height="78" rx="20" fill="#FFF8F8" stroke="#E9C8C8"/>
  <text x="648" y="588" fill="#7B756E" font-family="ui-monospace, 'SFMono-Regular', 'SF Mono', Consolas, monospace" font-size="15">notes.txt</text>
  <text x="1038" y="588" fill="#A84E4E" font-family="ui-monospace, 'SFMono-Regular', 'SF Mono', Consolas, monospace" font-size="15">notes_04.txt</text>
  <circle cx="1444" cy="579" r="7" fill="#D48A8A"/>

  <rect x="620" y="710" width="826" height="94" rx="26" fill="#FFFFFF" stroke="#E6E2DA"/>
  <text x="648" y="747" fill="#7B756E" font-family="ui-sans-serif, -apple-system, BlinkMacSystemFont, Segoe UI, sans-serif" font-size="14">4 of 7 files will change. Originals stay untouched until you apply.</text>
  <rect x="1278" y="730" width="140" height="52" rx="18" fill="#111111"/>
  <text x="1312" y="763" fill="#FFFFFF" font-family="ui-sans-serif, -apple-system, BlinkMacSystemFont, Segoe UI, sans-serif" font-size="16" font-weight="600">Apply</text>
</svg>
